<svg width="327" height="37" viewBox="0 0 327 37" fill="none" xmlns="http://www.w3.org/2000/svg">
<path d="M5.288 36.384C3.976 36.384 2.872 35.936 1.976 35.04C1.08 34.144 0.632 33.024 0.632 31.68C0.632 30.304 1.08 29.2 1.976 28.368C2.872 27.504 3.976 27.072 5.288 27.072C6.6 27.072 7.704 27.504 8.6 28.368C9.496 29.2 9.944 30.304 9.944 31.68C9.944 33.024 9.496 34.144 8.6 35.04C7.704 35.936 6.6 36.384 5.288 36.384ZM40.9944 0.383998V36H33.8424V33.024C31.9864 35.264 29.2984 36.384 25.7784 36.384C23.3464 36.384 21.1384 35.84 19.1544 34.752C17.2024 33.664 15.6664 32.112 14.5464 30.096C13.4264 28.08 12.8664 25.744 12.8664 23.088C12.8664 20.432 13.4264 18.096 14.5464 16.08C15.6664 14.064 17.2024 12.512 19.1544 11.424C21.1384 10.336 23.3464 9.792 25.7784 9.792C29.0744 9.792 31.6504 10.832 33.5064 12.912V0.383998H40.9944ZM27.0744 30.24C28.9624 30.24 30.5304 29.6 31.7784 28.32C33.0264 27.008 33.6504 25.264 33.6504 23.088C33.6504 20.912 33.0264 19.184 31.7784 17.904C30.5304 16.592 28.9624 15.936 27.0744 15.936C25.1544 15.936 23.5704 16.592 22.3224 17.904C21.0744 19.184 20.4504 20.912 20.4504 23.088C20.4504 25.264 21.0744 27.008 22.3224 28.32C23.5704 29.6 25.1544 30.24 27.0744 30.24ZM73.2208 23.184C73.2208 23.28 73.1728 23.952 73.0768 25.2H53.5408C53.8928 26.8 54.7248 28.064 56.0368 28.992C57.3488 29.92 58.9808 30.384 60.9328 30.384C62.2768 30.384 63.4608 30.192 64.4848 29.808C65.5408 29.392 66.5168 28.752 67.4128 27.888L71.3968 32.208C68.9648 34.992 65.4128 36.384 60.7408 36.384C57.8288 36.384 55.2528 35.824 53.0128 34.704C50.7728 33.552 49.0448 31.968 47.8288 29.952C46.6128 27.936 46.0048 25.648 46.0048 23.088C46.0048 20.56 46.5968 18.288 47.7808 16.272C48.9968 14.224 50.6448 12.64 52.7248 11.52C54.8368 10.368 57.1888 9.792 59.7808 9.792C62.3088 9.792 64.5968 10.336 66.6448 11.424C68.6928 12.512 70.2928 14.08 71.4448 16.128C72.6288 18.144 73.2208 20.496 73.2208 23.184ZM59.8288 15.456C58.1328 15.456 56.7088 15.936 55.5568 16.896C54.4048 17.856 53.7008 19.168 53.4448 20.832H66.1648C65.9088 19.2 65.2048 17.904 64.0528 16.944C62.9008 15.952 61.4928 15.456 59.8288 15.456ZM90.686 36.384C87.934 36.384 85.454 35.824 83.246 34.704C81.07 33.552 79.358 31.968 78.11 29.952C76.894 27.936 76.286 25.648 76.286 23.088C76.286 20.528 76.894 18.24 78.11 16.224C79.358 14.208 81.07 12.64 83.246 11.52C85.454 10.368 87.934 9.792 90.686 9.792C93.406 9.792 95.774 10.368 97.79 11.52C99.838 12.64 101.326 14.256 102.254 16.368L96.446 19.488C95.102 17.12 93.166 15.936 90.638 15.936C88.686 15.936 87.07 16.576 85.79 17.856C84.51 19.136 83.87 20.88 83.87 23.088C83.87 25.296 84.51 27.04 85.79 28.32C87.07 29.6 88.686 30.24 90.638 30.24C93.198 30.24 95.134 29.056 96.446 26.688L102.254 29.856C101.326 31.904 99.838 33.504 97.79 34.656C95.774 35.808 93.406 36.384 90.686 36.384ZM118.525 36.384C115.805 36.384 113.357 35.824 111.181 34.704C109.037 33.552 107.357 31.968 106.141 29.952C104.925 27.936 104.317 25.648 104.317 23.088C104.317 20.528 104.925 18.24 106.141 16.224C107.357 14.208 109.037 12.64 111.181 11.52C113.357 10.368 115.805 9.792 118.525 9.792C121.245 9.792 123.677 10.368 125.821 11.52C127.965 12.64 129.645 14.208 130.861 16.224C132.077 18.24 132.685 20.528 132.685 23.088C132.685 25.648 132.077 27.936 130.861 29.952C129.645 31.968 127.965 33.552 125.821 34.704C123.677 35.824 121.245 36.384 118.525 36.384ZM118.525 30.24C120.445 30.24 122.013 29.6 123.229 28.32C124.477 27.008 125.101 25.264 125.101 23.088C125.101 20.912 124.477 19.184 123.229 17.904C122.013 16.592 120.445 15.936 118.525 15.936C116.605 15.936 115.021 16.592 113.773 17.904C112.525 19.184 111.901 20.912 111.901 23.088C111.901 25.264 112.525 27.008 113.773 28.32C115.021 29.6 116.605 30.24 118.525 30.24ZM144.842 13.584C145.738 12.336 146.938 11.392 148.442 10.752C149.978 10.112 151.738 9.792 153.722 9.792V16.704C152.89 16.64 152.33 16.608 152.042 16.608C149.898 16.608 148.218 17.216 147.002 18.432C145.786 19.616 145.178 21.408 145.178 23.808V36H137.69V10.176H144.842V13.584ZM175.721 34.752C174.985 35.296 174.073 35.712 172.985 36C171.929 36.256 170.809 36.384 169.625 36.384C166.553 36.384 164.169 35.6 162.473 34.032C160.809 32.464 159.977 30.16 159.977 27.12V16.512H155.993V10.752H159.977V4.464H167.465V10.752H173.897V16.512H167.465V27.024C167.465 28.112 167.737 28.96 168.281 29.568C168.857 30.144 169.657 30.432 170.681 30.432C171.865 30.432 172.873 30.112 173.705 29.472L175.721 34.752ZM191.416 36.384C188.696 36.384 186.248 35.824 184.072 34.704C181.928 33.552 180.248 31.968 179.032 29.952C177.816 27.936 177.208 25.648 177.208 23.088C177.208 20.528 177.816 18.24 179.032 16.224C180.248 14.208 181.928 12.64 184.072 11.52C186.248 10.368 188.696 9.792 191.416 9.792C194.136 9.792 196.568 10.368 198.712 11.52C200.856 12.64 202.536 14.208 203.752 16.224C204.968 18.24 205.576 20.528 205.576 23.088C205.576 25.648 204.968 27.936 203.752 29.952C202.536 31.968 200.856 33.552 198.712 34.704C196.568 35.824 194.136 36.384 191.416 36.384ZM191.416 30.24C193.336 30.24 194.904 29.6 196.12 28.32C197.368 27.008 197.992 25.264 197.992 23.088C197.992 20.912 197.368 19.184 196.12 17.904C194.904 16.592 193.336 15.936 191.416 15.936C189.496 15.936 187.912 16.592 186.664 17.904C185.416 19.184 184.792 20.912 184.792 23.088C184.792 25.264 185.416 27.008 186.664 28.32C187.912 29.6 189.496 30.24 191.416 30.24ZM223.061 36.384C220.309 36.384 217.829 35.824 215.621 34.704C213.445 33.552 211.733 31.968 210.485 29.952C209.269 27.936 208.661 25.648 208.661 23.088C208.661 20.528 209.269 18.24 210.485 16.224C211.733 14.208 213.445 12.64 215.621 11.52C217.829 10.368 220.309 9.792 223.061 9.792C225.781 9.792 228.149 10.368 230.165 11.52C232.213 12.64 233.701 14.256 234.629 16.368L228.821 19.488C227.477 17.12 225.541 15.936 223.013 15.936C221.061 15.936 219.445 16.576 218.165 17.856C216.885 19.136 216.245 20.88 216.245 23.088C216.245 25.296 216.885 27.04 218.165 28.32C219.445 29.6 221.061 30.24 223.013 30.24C225.573 30.24 227.509 29.056 228.821 26.688L234.629 29.856C233.701 31.904 232.213 33.504 230.165 34.656C228.149 35.808 225.781 36.384 223.061 36.384ZM254.449 9.792C257.649 9.792 260.225 10.752 262.177 12.672C264.161 14.592 265.153 17.44 265.153 21.216V36H257.665V22.368C257.665 20.32 257.217 18.8 256.321 17.808C255.425 16.784 254.129 16.272 252.433 16.272C250.545 16.272 249.041 16.864 247.921 18.048C246.801 19.2 246.241 20.928 246.241 23.232V36H238.753V0.383998H246.241V12.864C247.233 11.872 248.433 11.12 249.841 10.608C251.249 10.064 252.785 9.792 254.449 9.792ZM283.028 25.872L279.428 29.424V36H271.94V0.383998H279.428V20.544L290.372 10.176H299.3L288.548 21.12L300.26 36H291.188L283.028 25.872ZM313.575 9.792C317.575 9.792 320.647 10.752 322.791 12.672C324.935 14.56 326.007 17.424 326.007 21.264V36H318.999V32.784C317.591 35.184 314.967 36.384 311.127 36.384C309.143 36.384 307.415 36.048 305.943 35.376C304.503 34.704 303.399 33.776 302.631 32.592C301.863 31.408 301.479 30.064 301.479 28.56C301.479 26.16 302.375 24.272 304.167 22.896C305.991 21.52 308.791 20.832 312.567 20.832H318.519C318.519 19.2 318.023 17.952 317.031 17.088C316.039 16.192 314.551 15.744 312.567 15.744C311.191 15.744 309.831 15.968 308.487 16.416C307.175 16.832 306.055 17.408 305.127 18.144L302.439 12.912C303.847 11.92 305.527 11.152 307.479 10.608C309.463 10.064 311.495 9.792 313.575 9.792ZM312.999 31.344C314.279 31.344 315.415 31.056 316.407 30.48C317.399 29.872 318.103 28.992 318.519 27.84V25.2H313.383C310.311 25.2 308.775 26.208 308.775 28.224C308.775 29.184 309.143 29.952 309.879 30.528C310.647 31.072 311.687 31.344 312.999 31.344Z" fill="white"/>
</svg>
