<svg width="915" height="716" viewBox="0 0 915 716" fill="none" xmlns="http://www.w3.org/2000/svg">
<path d="M141.525 110.526C142.829 111.108 144.786 110.526 145.112 108.78C160.764 95.5835 178.047 88.2089 196.961 84.3281C215.875 80.4473 235.114 80.0587 254.191 79.8644C257.126 79.8644 260.55 79.6702 262.342 76.7592C263.975 74.2367 263.647 70.5502 262.017 68.0261C260.386 65.5037 257.941 63.9526 255.496 62.9813C248.81 60.4588 237.397 61.0401 231.2 64.7282C229.245 65.8922 225.984 63.7568 225.006 61.6229C223.537 57.9348 221.907 54.2482 220.44 50.7544C219.136 47.4564 217.668 44.1584 215.385 41.8287C212.613 38.9177 209.027 37.5593 205.44 36.588C187.505 31.5431 168.101 34.0655 151.308 43.1871C147.557 45.321 143.807 47.6507 140.873 51.143C136.96 55.8009 134.513 62.2041 133.373 68.8033C130.927 81.8056 132.884 95.7778 138.916 107.032C139.242 108.392 140.22 109.944 141.524 110.526H141.525Z" fill="#FF9560"/>
<path d="M518.979 105.869C520.283 107.809 522.566 105.092 521.263 103.152C515.882 95.0007 515.882 82.3869 521.263 74.431C526.643 66.6678 536.263 63.951 543.925 67.8319C544.742 68.2204 545.882 68.2204 546.209 67.0563C549.632 57.7421 554.198 48.4278 561.535 42.7985C567.731 38.1406 575.557 37.365 581.916 41.6344C584.688 43.574 587.133 46.485 588.112 50.3674C589.253 54.8311 588.6 59.4874 590.068 63.9511C591.862 69.1902 595.774 70.3559 600.014 70.9387C604.253 71.5184 608.004 73.4612 611.102 76.9534C618.113 85.2979 617.46 98.8831 610.286 106.645C608.655 108.392 611.102 111.108 612.569 109.361C619.253 101.987 621.373 89.7615 617.134 80.0587C615.178 75.4008 611.754 71.52 607.84 69.1918C605.72 68.0261 603.6 67.249 601.318 66.8621C599.036 66.4735 596.101 66.6678 594.307 64.5339C591.535 61.04 592.35 54.4425 591.535 50.1731C590.72 45.9038 588.438 42.2157 585.34 39.6932C579.144 34.2598 570.503 33.4842 563.492 36.9765C554.035 41.8287 548.002 52.6956 543.763 63.5641C537.078 60.8458 529.415 61.8172 523.381 66.6678C516.534 72.1012 512.947 81.4171 513.762 91.1199C514.578 96.5533 516.207 101.6 518.979 105.869ZM10.5979 191.062C5.21734 182.912 5.21734 170.297 10.5979 162.341C15.9785 154.578 25.5979 151.861 33.2606 155.743C34.077 156.13 35.2187 156.13 35.544 154.966C38.9677 145.652 43.5332 136.338 50.8719 130.708C57.0663 126.052 64.8935 125.275 71.2512 129.544C74.0231 131.485 76.4698 134.396 77.4469 138.277C78.5886 142.741 77.9367 147.399 79.4037 151.861C81.1972 157.102 85.1108 158.266 89.3497 158.848C93.5899 159.43 97.3389 161.371 100.437 164.865C107.448 173.208 106.796 186.793 99.621 194.554C97.9921 196.301 100.437 199.02 101.904 197.271C108.59 189.898 110.709 177.671 106.47 167.968C104.513 163.311 101.089 159.43 97.1756 157.102C95.0555 155.937 92.9368 155.16 90.6547 154.772C88.3713 154.385 85.4374 154.578 83.6439 152.444C80.8719 148.95 81.6871 142.354 80.8719 138.083C80.0555 133.814 77.7734 130.127 74.6763 127.603C68.4806 122.17 59.8382 121.394 52.8274 124.886C43.3712 129.738 37.3375 140.605 33.0986 151.474C26.4131 148.757 18.7504 149.727 12.718 154.578C5.87049 160.013 2.28212 169.327 3.09856 179.03C3.5871 184.463 5.21865 189.51 7.98927 193.779C9.6195 195.72 11.9029 193.002 10.5979 191.062ZM666.863 297.796C667.842 298.572 668.82 299.543 669.635 300.319C669.147 299.93 668.819 299.543 668.332 299.155C667.842 298.572 667.353 298.183 666.863 297.796ZM660.016 289.063C659.689 288.48 659.199 287.899 658.874 287.512C659.526 288.675 660.341 289.839 660.994 290.81L660.016 289.063Z" fill="#FF9560"/>
<path d="M666.863 336.609C673.711 340.49 680.885 343.595 688.386 345.535C697.027 347.865 705.994 349.029 714.962 349.417C730.777 349.999 746.757 348.059 762.409 345.924C779.203 343.595 795.997 340.296 812.627 336.221C824.693 333.31 836.595 329.816 848.498 325.935C848.988 327.876 849.314 329.816 849.64 331.757C851.27 341.071 851.433 351.357 856.487 358.924C862.519 368.046 873.607 369.793 883.227 368.046C907.196 363.39 927.413 338.16 929.858 309.246C932.467 280.525 917.304 250.639 894.641 240.159C877.031 232.009 854.857 233.367 842.465 216.29C832.681 202.512 833.498 182.329 834.15 164.282C834.801 146.233 833.661 125.469 821.758 114.408C811.812 105.092 796.975 105.675 787.191 96.1665C777.572 87.0449 775.127 70.9373 767.789 59.2932C760.615 48.0378 748.714 41.246 736.974 41.8288C725.071 42.4101 713.658 50.1733 707.299 62.0115C705.016 66.2809 702.734 71.5201 698.495 72.4899C695.723 73.0727 692.951 71.5185 690.016 70.9388C683.983 69.5789 677.624 73.654 673.874 79.4775C670.124 85.298 668.494 92.6726 667.678 100.047C667.027 106.064 667.19 112.467 669.147 118.096C671.267 123.722 675.831 128.186 680.885 128.186C682.842 114.795 689.201 102.181 698.332 94.031L702.082 93.4482C704.202 108.975 712.843 122.947 724.419 129.933C728.658 132.455 733.224 134.202 736.974 137.694C742.518 142.935 744.963 151.278 747.245 159.237C751.974 175.926 756.866 192.809 764.692 207.751C776.757 230.651 781.324 247.145 802.356 257.625C815.399 264.03 827.627 278.972 836.433 295.468C819.965 300.707 803.334 304.977 786.54 308.469C780.344 309.827 774.148 310.799 767.789 311.963C757.028 313.71 746.267 315.068 735.506 315.844C724.745 316.621 713.821 316.815 703.059 315.262C695.886 313.904 688.874 311.769 682.19 308.663C678.596 306.734 675.111 304.53 671.755 302.066C668.005 310.022 665.07 318.56 662.135 326.905L660.179 332.727C662.461 334.085 664.581 335.249 666.863 336.609ZM714.147 428.788C743.985 431.505 773.985 427.817 803.008 419.278C818.986 414.622 834.801 409.188 850.943 406.277C850.128 406.472 849.476 406.472 848.661 406.664C849.965 406.472 851.106 406.277 852.411 406.083C851.922 406.083 851.433 406.277 850.943 406.277C853.39 405.889 855.672 405.695 858.117 405.5C856.814 394.633 855.347 383.572 854.042 372.704C847.356 373.481 840.509 374.645 833.986 376.198C819.15 379.691 804.638 384.736 789.801 388.81C782.464 390.753 774.963 392.498 767.464 393.856C745.267 397.156 722.811 397.156 700.614 393.856C683.495 390.945 666.537 386.095 650.232 379.301V381.437C650.232 393.275 652.352 404.531 655.124 415.98C674.201 422.772 694.093 426.847 714.147 428.788ZM715.94 537.269C708.151 536.501 700.378 535.531 692.624 534.358C693.278 534.551 693.928 534.551 694.418 534.745C693.114 534.553 691.973 534.358 690.668 534.164C691.321 534.358 691.973 534.358 692.461 534.358C682.678 532.806 672.896 530.67 663.276 528.342C662.298 539.403 660.831 550.27 659.363 561.139C677.951 565.602 696.865 568.513 715.94 570.259C733.224 571.811 750.669 572.394 767.953 571.617C774.199 562.406 779.356 552.221 783.279 541.345C782.791 540.18 782.463 539.015 782.137 537.656C760.127 539.792 737.789 539.403 715.94 537.269ZM866.433 489.335H868.063C867.738 483.319 866.923 477.302 866.27 471.482C865.618 466.437 864.966 461.391 864.313 456.151C848.335 456.344 832.193 456.733 816.214 456.927C812.954 456.927 809.693 457.121 806.595 457.121C806.758 457.703 806.922 458.48 807.083 459.062C792.247 465.271 776.757 469.541 761.268 472.258C761.92 472.063 762.572 472.063 763.224 471.871C761.92 472.063 760.778 472.258 759.475 472.452C760.127 472.452 760.615 472.258 761.268 472.063C740.316 475.168 719.121 475.168 698.168 472.063C698.82 472.258 699.472 472.258 699.962 472.452C698.658 472.258 697.517 472.063 696.212 471.871C696.865 472.063 697.515 472.063 698.005 472.063C686.592 470.124 675.179 467.213 664.091 463.332C665.233 474.782 665.395 486.426 665.07 498.068C683.005 503.501 701.592 506.607 720.179 507.384C747.082 508.548 774.475 504.667 800.399 496.128C800.888 495.934 801.378 495.74 801.866 495.74C803.334 484.484 805.453 471.871 807.41 461.002C808.226 464.69 809.04 468.569 810.019 472.258C811.322 478.08 812.627 484.29 811.649 490.112C829.911 489.918 848.173 489.724 866.433 489.335Z" fill="#FF9560"/>
<path d="M821.432 533C822.573 533.581 823.715 534.164 824.693 534.745C824.204 534.553 823.552 534.164 823.063 533.97C829.584 537.464 835.618 541.732 841.324 546.584C840.998 546.195 840.509 545.808 840.182 545.42C841.16 546.195 842.139 547.167 842.954 547.942C842.465 547.361 841.814 546.971 841.324 546.391C842.14 547.167 842.792 547.748 843.444 548.525C845.237 546.778 847.031 545.031 848.824 543.09C849.313 542.703 849.639 542.12 850.128 541.731L850.291 541.539L851.433 540.18C853.556 537.847 855.518 535.316 857.302 532.612C857.629 532.029 857.955 531.64 858.281 531.059C859.749 528.923 860.889 526.595 862.031 524.267C858.444 520.579 854.53 517.087 850.618 513.981C839.857 505.637 827.627 499.426 815.073 496.128C813.442 495.74 811.812 495.351 810.019 494.963C806.922 502.532 800.236 507.384 793.877 511.459L797.627 515.728C792.9 517.279 788.333 519.998 785.073 524.267C787.029 525.625 789.313 526.207 791.758 526.207C795.182 526.207 798.606 526.401 802.193 526.984C801.541 526.789 801.051 526.789 800.399 526.595C801.703 526.789 802.845 526.984 804.15 527.178C803.496 526.984 802.846 526.984 802.193 526.984C809.204 528.342 816.214 530.67 822.9 533.776C822.573 533.581 822.083 533.387 821.432 533ZM215.548 481.768C194.841 474.004 175.276 459.645 163.373 438.103C159.297 430.535 156.037 422.189 152.938 414.039C152.123 411.905 146.906 407.83 148.047 405.695C149.026 403.948 155.222 404.919 157.015 404.531C175.439 400.455 195.006 389.587 210.331 376.973C216.69 388.034 214.571 404.919 220.115 416.369C224.842 426.266 233.647 432.669 242.778 436.163C249.788 438.88 257.126 439.85 264.463 440.432C261.365 413.264 257.126 386.095 251.745 359.509C244.734 324.965 235.604 290.033 217.505 261.895C206.581 243.266 190.929 228.517 172.83 222.306C167.938 219.007 162.396 216.678 157.34 213.767C152.286 210.856 147.394 206.587 144.786 200.959C130.279 219.576 116.462 238.935 103.371 258.982C103.861 258.982 87.5561 286.928 92.9367 329.427C96.3605 356.595 101.741 383.376 109.078 409.38C116.416 435.384 123.916 461.778 126.362 488.946C128.807 516.308 125.872 545.224 113.317 568.318C110.71 573.362 107.448 578.407 107.448 584.424C107.611 595.681 118.536 601.501 127.829 604.219C168.427 615.475 210.983 616.832 252.072 608.1C257.126 606.936 262.67 605.578 266.093 601.112C270.169 595.873 270.659 587.917 270.984 580.737C271.801 551.24 271.147 521.549 269.191 492.244C250.93 490.693 232.832 488.364 215.548 481.766V481.768Z" fill="#FF9560"/>
<path d="M108.753 573.558C97.1756 537.656 78.4265 505.443 54.4576 479.632C47.7733 472.452 40.5992 465.66 33.0985 459.644C32.2821 459.062 31.305 459.449 30.8165 460.421C16.6302 489.335 4.89201 520.773 1.95679 554.347C-0.978431 588.889 6.35895 623.238 16.9568 655.259C22.9892 673.501 30 691.354 37.1741 709.208C38.1525 711.536 40.9245 709.597 40.1107 707.267C27.718 676.412 15.3266 644.973 8.80431 611.401C5.70712 595.099 4.07689 578.216 4.89201 561.333C5.70712 544.643 8.80431 528.342 13.5331 512.623C18.5871 495.74 25.2726 479.632 32.9353 464.107C58.3712 485.26 79.5669 513.399 94.5669 545.808C98.8092 555.098 102.567 564.689 105.818 574.528C106.306 577.051 109.568 576.081 108.753 573.558Z" fill="#FF9560"/>
<path d="M90.9799 665.739C88.3726 671.755 84.4589 676.993 79.7302 681.069C75.0028 661.47 70.2727 641.674 65.8705 622.074C72.2308 603.445 80.8719 585.978 91.3064 570.066C92.6101 568.123 90.3281 565.214 89.0244 567.348C79.0784 582.291 70.9259 598.592 64.5669 616.058C64.4036 615.282 64.2403 614.699 64.077 613.924C60.0014 595.875 56.0878 577.633 52.3388 559.586C52.664 559.392 52.8273 559.003 52.9906 558.422C57.2308 543.478 61.3064 528.731 65.5453 513.787C66.1971 511.459 62.9366 510.293 62.2835 512.816C58.5345 526.207 54.7841 539.792 51.0338 553.181C49.2403 544.061 47.2835 534.94 45.4899 525.82C42.2295 509.129 39.131 492.44 36.0338 475.751C35.5439 473.229 32.4467 474.393 32.772 476.723C38.1525 506.413 43.8597 535.911 50.0554 565.214L55.436 590.83C39.9461 584.038 25.9245 573.17 14.3482 559.198C12.8812 557.451 10.4346 560.169 12.0661 561.914C24.2942 576.858 39.2942 588.113 55.7625 595.099C55.9258 595.099 56.2511 595.294 56.4144 595.294C58.3712 604.221 60.328 613.147 62.2835 621.881C62.1215 622.461 61.7949 623.044 61.6317 623.821C61.1431 625.372 62.1215 626.149 63.2619 626.149C65.382 635.076 67.3388 644.198 69.4576 653.124C70.5993 657.781 71.5777 662.245 72.7194 666.903C54.6208 658.751 38.3158 645.556 25.4359 628.283C23.9676 626.343 21.6856 629.254 23.1525 631.001C36.8476 649.437 54.4576 663.409 73.8598 671.559C76.3064 681.845 78.9151 692.131 81.3604 702.416C82.0123 704.939 85.1108 703.775 84.6209 701.445C83.3172 696.011 82.0136 690.578 80.5453 685.145C86.0892 680.875 90.4913 674.859 93.5885 667.873C94.8935 665.543 91.9583 663.409 90.9812 665.737L90.9799 665.739ZM302.616 681.651C303.431 671.561 304.573 661.468 306.04 651.571C319.371 650.796 332.47 647.113 344.682 640.704C346.639 639.733 345.009 636.24 343.052 637.21C331.639 643.226 319.246 646.72 306.691 647.496C308.323 637.21 310.278 626.732 312.725 616.64C313.54 616.252 314.192 615.088 313.54 613.924C313.54 613.729 313.377 613.729 313.377 613.535C315.666 603.97 318.277 594.518 321.203 585.202C329.682 582.291 338.16 579.186 346.802 576.275C348.922 575.499 347.942 571.811 345.986 572.394C338.323 575.111 330.497 577.828 322.833 580.544C323.486 578.41 324.137 576.469 324.953 574.335C329.029 562.497 333.758 550.853 338.813 539.403C339.79 537.075 337.019 535.134 335.876 537.462C329.355 551.823 323.648 566.766 318.758 582.099C318.268 582.486 318.106 583.261 318.106 583.844C315.531 591.874 313.246 600.033 311.258 608.296L300.007 582.68C299.029 580.35 296.094 582.486 297.072 584.619C301.312 594.322 305.713 604.027 309.953 613.729C305.716 631.408 302.609 649.442 300.659 667.679C300.334 670.59 300.007 673.501 299.844 676.606C293.648 666.514 287.616 656.423 281.42 646.332C280.116 644.196 277.343 646.332 278.484 648.273C285.496 659.723 292.343 670.978 299.355 682.428C298.702 690.578 298.377 698.534 298.214 706.686C298.214 709.208 301.474 709.208 301.474 706.686C301.637 698.922 301.964 691.159 302.616 683.398C302.942 683.203 303.104 682.426 302.616 681.651Z" fill="#FF9560"/>
<path d="M412.184 548.525C411.694 548.136 411.206 547.748 410.553 547.942C391.15 556.481 375.335 575.111 367.508 597.816C367.183 598.787 366.856 599.563 366.693 600.533C366.204 588.695 364.899 577.052 363.106 565.407C360.661 548.912 357.4 532.612 353.976 516.504C353.813 515.533 352.835 514.757 351.856 515.146C323.16 526.401 298.377 550.078 282.561 580.544C278.12 589.143 274.406 598.244 271.473 607.713C270.659 610.041 273.92 611.207 274.735 608.685C284.844 576.081 304.898 548.331 330.171 530.865C336.856 526.207 343.866 522.52 351.204 519.415C356.91 546.778 362.454 574.335 363.432 602.474C363.596 606.161 363.596 609.654 363.596 613.341C363.432 614.699 363.106 616.252 362.944 617.61C362.781 618.387 363.106 618.969 363.432 619.357C362.781 638.182 359.519 656.812 352.835 673.889C348.107 685.922 341.747 696.787 333.596 705.909C331.964 707.656 334.409 710.372 335.878 708.625C345.334 698.147 352.345 685.145 357.237 671.171C357.735 682.104 360.661 692.684 365.715 701.834C366.856 703.967 369.791 702.028 368.651 699.892C363.759 690.967 360.987 680.681 360.661 670.203C360.661 668.648 359.357 668.067 358.378 668.454C360.661 661.274 362.617 653.899 363.922 646.526C365.878 635.658 366.693 624.791 366.856 613.922C370.607 592.577 381.368 573.171 396.531 560.75C400.933 557.256 405.662 554.153 410.553 552.017C423.271 565.797 432.402 583.844 436.804 603.444C441.369 623.821 440.554 645.556 434.847 665.543C431.586 676.993 426.532 687.665 420.335 697.176C419.032 699.117 421.314 702.028 422.619 699.892C434.195 682.621 441.369 661.274 442.836 639.151C444.304 617.416 440.064 595.486 431.097 576.469C426.206 566.184 419.684 556.675 412.184 548.525Z" fill="#FF9560"/>
<path d="M433.38 627.896C435.337 626.732 433.543 623.238 431.75 624.402L400.445 644.779C401.912 630.03 403.705 615.282 405.988 600.727C407.462 591.374 409.093 582.058 410.879 572.783C411.368 570.26 408.107 569.289 407.619 571.811C404.682 587.143 402.075 602.472 400.118 617.999V617.805C396.531 607.519 392.781 597.233 389.194 586.949C388.379 584.619 385.443 586.561 386.26 588.889C389.847 599.174 393.596 609.46 397.183 619.746C397.673 621.297 399.303 620.91 399.955 619.746C397.672 637.051 396.04 654.469 395.064 671.948C394.901 673.695 394.901 675.247 394.737 676.993C387.237 668.067 380.879 657.587 375.987 646.332C375.009 644.004 372.073 646.137 373.052 648.273C378.432 660.692 385.443 671.754 393.922 681.456C394.086 681.651 394.249 681.845 394.574 681.845C394.249 688.056 394.086 694.07 393.922 700.281C393.922 702.803 397.183 702.803 397.183 700.281C397.509 683.398 398.486 666.32 399.955 649.437C411.042 642.257 422.292 635.076 433.38 627.894V627.896ZM565.286 169.715C580.122 174.566 593.329 185.24 603.112 199.407C612.896 213.962 618.602 232.011 619.253 250.639C619.416 253.482 619.416 256.335 619.253 259.178C619.09 261.7 622.515 261.7 622.515 259.178C623.33 239.189 618.602 219.201 609.145 202.706C600.014 186.987 586.97 174.76 571.807 168.163C556.155 161.371 538.708 160.788 522.893 166.61C507.566 172.238 493.87 183.493 484.087 198.631C473.979 214.156 468.435 233.173 468.109 252.773C468.109 255.878 468.109 258.984 468.272 262.089C468.435 264.611 471.696 264.611 471.532 262.089C470.229 242.683 474.304 223.082 483.272 206.781C491.588 191.451 503.979 179.418 518.164 172.821C533.327 165.64 549.959 164.669 565.286 169.715Z" fill="#FF9560"/>
<path d="M593.167 258.789C593.004 261.312 596.427 261.312 596.427 258.789C597.894 232.009 584.198 206.587 562.839 197.273C541.643 187.957 517.512 196.884 504.143 218.231C496.317 230.651 492.892 246.564 494.523 261.896C494.848 264.419 498.11 264.419 497.784 261.896C496.48 248.892 498.762 235.697 504.468 224.634C509.686 214.545 517.839 206.393 527.132 201.735C546.697 192.226 569.525 199.407 582.731 219.007C590.395 230.262 593.981 244.429 593.166 258.789H593.167Z" fill="#FF9560"/>
<path d="M557.296 220.171C543.925 213.573 528.273 219.201 519.957 233.175C514.903 241.518 513.273 251.997 514.903 262.089C515.229 264.611 518.491 263.447 518.164 261.117C515.719 245.787 522.566 229.875 534.957 223.859C546.862 218.037 560.882 222.887 568.221 235.503C570.391 239.225 571.913 243.426 572.697 247.859C573.481 252.292 573.511 256.866 572.785 261.313C572.296 263.836 575.557 264.806 576.047 262.283C578.817 244.817 571.155 226.964 557.295 220.171H557.296ZM276.528 310.216C296.42 314.874 316.474 319.532 336.366 324.188C338.486 324.771 339.301 320.89 337.183 320.307C317.29 315.649 297.235 310.993 277.343 306.335C275.223 305.947 274.408 309.635 276.528 310.216ZM274.572 324.577C291.366 327.293 307.833 332.34 323.811 339.52C325.768 340.49 326.747 336.609 324.628 335.638C308.811 328.457 292.181 323.605 275.386 320.696C273.266 320.307 272.452 324.19 274.571 324.577H274.572ZM270.821 337.385C286.636 340.684 301.964 345.923 316.801 353.298C318.757 354.27 319.573 350.387 317.617 349.417C302.779 342.043 287.452 336.802 271.637 333.504C269.68 333.115 268.865 336.998 270.821 337.385ZM264.625 349.61C273.104 352.132 281.582 354.655 290.061 356.985C292.181 357.568 292.996 353.687 290.877 353.104C282.397 350.581 273.919 348.059 265.44 345.729C263.32 345.148 262.506 349.029 264.625 349.61Z" fill="#FF9560"/>
<path d="M336.041 132.455H442.347C444.468 132.455 444.468 128.574 442.347 128.574H336.041C333.758 128.38 333.758 132.455 336.041 132.455ZM336.041 147.98H442.347C444.468 147.98 444.468 144.099 442.347 144.099H336.041C333.758 144.099 333.758 147.98 336.041 147.98ZM336.041 163.699H442.347C444.468 163.699 444.468 159.818 442.347 159.818H336.041C333.758 159.624 333.758 163.699 336.041 163.699ZM336.041 179.224H442.347C444.468 179.224 444.468 175.343 442.347 175.343H336.041C333.758 175.343 333.758 179.224 336.041 179.224ZM336.041 194.943H383.161C385.281 194.943 385.281 191.062 383.161 191.062H336.041C333.758 190.868 333.758 194.943 336.041 194.943ZM439.901 308.858H527.947C530.067 308.858 530.067 304.977 527.947 304.977H439.902C437.782 304.782 437.782 308.858 439.902 308.858H439.901ZM542.458 308.858H560.23C562.35 308.858 562.35 304.977 560.23 304.977H542.458C540.338 304.782 540.338 308.858 542.458 308.858ZM579.634 310.216H645.014C647.135 310.216 647.135 306.335 645.014 306.335H579.634C577.514 306.335 577.514 310.216 579.634 310.216ZM485.392 331.174H465.663C463.543 331.174 463.543 335.057 465.663 335.057H555.34C557.46 335.057 557.46 331.174 555.34 331.174H485.392ZM568.056 334.474H612.569C614.689 334.474 614.689 330.593 612.569 330.593H568.055C565.935 330.399 565.935 334.474 568.055 334.474H568.056ZM143.319 140.8C145.927 143.905 149.841 145.652 153.428 144.875C152.938 163.505 149.841 181.941 144.622 199.601C143.971 201.929 147.069 203.095 147.884 200.572C152.45 185.435 155.383 169.521 156.362 153.413C158.482 162.535 162.069 171.268 167.286 178.643C174.297 188.54 184.243 194.749 195.331 195.526H196.635C195.82 208.745 196.313 222.032 198.103 235.114C198.428 237.637 201.69 236.473 201.363 234.143C199.733 221.336 199.243 208.334 200.06 195.526C208.864 194.749 217.505 190.092 223.212 181.746C231.038 169.91 232.505 153.413 233.158 139.053C233.973 120.036 232.18 100.824 227.94 82.3869C227.288 79.8645 224.191 81.0285 224.679 83.3583C228.266 98.493 230.06 114.214 230.06 130.125C230.06 138.085 229.571 145.846 228.593 153.608C227.776 160.4 226.473 167.191 223.864 173.208C219.137 184.269 210.331 190.868 200.06 191.643H199.243C199.064 191.548 198.87 191.498 198.673 191.498C198.476 191.498 198.282 191.548 198.103 191.643C188.645 191.838 179.678 187.57 172.667 179.611C164.026 169.715 159.134 155.549 157.993 141.382C157.83 140.024 156.688 138.86 155.547 139.636C152.286 142.158 148.209 140.8 145.764 137.694C143.319 134.591 141.688 130.127 141.199 125.858C140.71 122.17 141.199 117.319 144.297 115.378C146.417 114.019 149.514 114.019 150.819 116.93C151.796 118.872 154.243 117.513 153.917 115.378C153.101 111.691 152.45 107.81 151.634 104.122C151.145 101.6 147.884 102.764 148.373 105.094C148.699 107.033 149.189 108.974 149.514 110.914C147.721 110.333 145.601 110.333 143.807 111.303C139.242 113.437 137.448 119.064 137.776 124.499C137.776 130.321 139.895 136.532 143.319 140.8ZM207.722 377.75C208.864 380.273 211.962 379.109 212.124 376.392C212.288 374.645 211.309 372.898 210.658 371.347C209.841 369.404 209.189 367.465 208.374 365.718C205.277 358.15 202.342 350.776 199.243 343.207C193.212 328.07 187.015 313.127 180.983 297.991C180.004 295.661 177.232 297.796 178.047 299.93C183.265 312.546 188.319 325.352 193.537 337.968C196.145 344.177 198.591 350.58 201.201 356.79C202.505 359.896 203.647 363.001 204.95 366.106C205.602 367.853 206.254 369.406 206.907 371.151C207.234 371.928 207.559 372.509 207.722 373.287C207.886 373.675 208.049 374.258 208.374 374.645V374.839C207.722 375.42 207.234 376.586 207.722 377.75ZM408.434 511.846C404.683 511.653 401.096 510.876 397.673 508.742C394.901 506.995 392.455 504.667 389.847 502.337C382.999 496.321 375.335 493.217 366.856 492.827C361.965 492.44 356.91 492.827 352.019 493.023C346.476 493.217 341.095 493.217 335.551 493.217C324.79 493.217 314.029 492.635 303.268 491.857C281.745 490.306 260.386 487.395 238.864 484.484C229.081 483.126 218.972 482.155 209.841 477.304C202.178 473.422 195.004 468.182 188.32 462.555C172.667 449.552 159.297 431.894 152.775 410.351C152.123 408.023 148.863 408.994 149.514 411.322C155.384 430.728 166.471 447.03 179.841 459.838C186.363 466.049 193.536 471.676 201.037 476.333C204.95 478.855 209.027 481.185 213.266 482.932C217.994 484.679 222.886 485.843 227.778 486.618C238.375 488.365 248.973 489.529 259.408 490.888C270.496 492.246 281.583 493.604 292.506 494.576C314.355 496.515 336.203 497.292 358.052 496.515C363.269 496.321 368.486 496.321 373.542 497.487C377.617 498.457 381.531 500.398 385.117 503.115C390.66 507.384 395.389 512.817 402.075 514.564C404.032 515.145 406.15 515.34 408.107 515.34C410.553 515.728 410.553 511.846 408.434 511.846ZM431.75 514.176C422.945 509.323 414.466 503.501 406.314 497.098C404.52 495.74 402.89 499.038 404.683 500.592C412.673 507.188 421.152 512.817 430.119 517.669C432.075 518.639 433.706 515.34 431.75 514.176ZM450.825 511.846C439.322 507.138 428.146 501.363 417.401 494.576C415.445 493.41 413.814 496.71 415.771 498.07C426.859 505.054 438.271 510.876 450.01 515.727C451.967 516.504 452.782 512.623 450.827 511.846H450.825ZM461.26 510.682C451.805 504.666 442.021 498.07 434.195 489.141C432.401 487.007 430.608 484.679 429.141 482.155C428.163 480.409 427.673 478.857 427.184 477.498C426.368 474.782 426.368 472.063 426.858 469.152C427.347 467.018 427.999 465.079 429.793 463.913C431.26 462.942 433.053 462.749 434.847 462.362C436.967 461.973 435.988 458.091 434.032 458.48C430.934 459.062 427.673 460.031 425.554 463.138C423.597 466.241 422.945 471.093 423.271 474.974C423.434 477.497 424.412 480.019 425.391 482.349C428.651 489.529 434.195 494.963 439.739 499.815C445.935 505.248 452.782 509.905 459.631 514.176C461.424 515.34 463.055 511.846 461.261 510.682H461.26ZM109.894 594.907C100.274 622.074 96.0352 651.959 97.3389 681.262C97.6655 689.608 98.6425 697.953 99.7856 706.103C100.111 708.625 103.373 707.461 103.046 705.131C98.6439 676.606 99.7856 647.107 106.307 619.163C108.1 611.207 110.383 603.444 113.154 596.069C113.807 593.741 110.709 592.575 109.894 594.905V594.907ZM269.029 624.015C268.539 616.058 268.05 608.296 267.56 600.339C267.397 597.816 264.137 597.816 264.3 600.339C266.093 627.896 267.724 655.453 269.517 683.009C270.006 690.967 270.496 698.728 270.984 706.686C271.147 709.208 274.408 709.208 274.246 706.686C272.614 679.127 270.822 651.571 269.027 624.015H269.029ZM260.386 663.216C259.732 680.445 256.008 697.312 249.462 712.7C248.483 715.03 251.419 716.97 252.398 714.642C259.256 698.67 263.147 681.132 263.81 663.215C263.81 660.692 260.386 660.692 260.386 663.215V663.216Z" fill="white"/>
<path d="M569.198 471.482C569.524 470.899 569.688 470.124 569.524 469.541C569.688 469.347 569.85 468.96 569.85 468.765C573.273 448.194 576.697 427.623 579.959 407.053C580.122 405.889 579.634 405.112 578.817 404.725C578.492 403.366 577.024 402.395 576.047 403.753C575.883 403.366 575.557 403.172 575.068 402.978C550.937 397.933 526.806 393.468 502.511 389.394C478.381 385.318 454.087 381.825 429.956 378.72C416.276 376.975 402.579 375.422 388.868 374.062C386.748 373.868 386.748 377.75 388.868 377.945C412.999 380.467 437.13 383.378 461.261 386.87C485.555 390.364 509.686 394.245 533.817 398.709C547.187 401.231 560.393 403.753 573.763 406.47C563.98 418.503 554.034 430.728 544.252 442.761C543.925 443.149 543.925 443.343 543.763 443.732C543.6 443.732 543.437 443.536 543.273 443.536C516.244 440.246 489.232 436.753 462.239 433.058C435.337 429.37 408.434 425.295 381.531 421.025C367.183 418.697 352.998 416.369 338.65 414.039C353.161 402.007 367.508 389.781 382.019 377.75C383.813 376.392 382.019 372.898 380.389 374.256C365.063 387.065 349.899 399.873 334.573 412.681C333.757 413.264 333.757 414.233 333.921 415.203C333.757 415.592 333.757 416.175 333.921 416.562C333.921 416.756 333.757 417.144 333.757 417.339C334.409 429.758 334.247 441.983 332.942 454.405V454.986C317.616 451.882 302.452 448.388 287.126 445.283C278.047 443.359 268.971 441.419 259.898 439.461C255.332 438.491 250.93 437.521 246.365 436.55C242.451 435.774 238.539 434.805 234.952 432.863C227.778 428.983 221.744 420.444 219.298 411.517C217.995 406.859 217.178 402.007 216.2 397.35C215.06 392.111 213.918 386.676 212.939 381.437C212.451 378.914 209.189 380.078 209.679 382.408C211.473 391.528 213.429 400.455 215.385 409.575C217.178 418.114 221.092 425.489 226.636 431.118C229.571 434.028 232.832 436.356 236.419 437.908C240.332 439.461 244.408 440.238 248.483 441.014C257.778 442.955 267.072 444.894 276.365 447.03C294.953 450.911 313.539 454.986 332.291 458.868C349.736 462.555 367.345 466.241 384.955 461.972C403.053 457.51 421.152 448.583 439.739 454.599C441.859 455.18 442.673 451.494 440.554 450.716C424.412 445.672 408.107 451.105 392.455 455.761C384.628 458.091 376.802 460.032 368.65 460.032C359.519 460.032 350.389 458.674 341.421 456.733L335.551 455.569C335.714 455.18 336.041 454.793 336.041 454.405C337.181 442.178 337.508 429.952 336.856 417.727C363.106 422.189 389.358 426.266 415.608 430.339C442.673 434.416 469.902 438.298 496.968 441.791C511.642 443.73 526.316 445.477 540.99 447.418C540.503 447.805 540.338 448.194 540.338 448.97C540.828 471.093 539.198 493.023 535.611 514.757L535.447 514.951C534.957 515.728 534.957 516.504 535.284 517.087L534.306 522.326C512.458 517.862 490.446 513.399 468.598 508.742C466.478 508.354 465.662 512.04 467.782 512.623C489.957 517.087 511.968 521.743 534.142 526.207C535.121 526.401 535.773 525.625 536.099 524.848C536.751 524.848 537.403 524.461 537.566 523.49C538.056 521.162 538.383 518.834 538.871 516.504C548.98 501.562 559.088 486.424 569.198 471.482ZM543.925 449.164C543.925 448.583 543.763 448.194 543.437 447.805C544.252 447.805 544.74 447.03 544.74 446.254C545.23 446.447 545.882 446.447 546.372 445.866L576.209 409.188C572.948 428.594 569.85 448 566.589 467.601C566.589 467.988 566.589 468.377 566.752 468.765C557.948 481.96 549.144 495.157 540.176 508.354C543.11 488.948 544.415 469.154 543.925 449.165V449.164ZM204.952 379.69C187.83 393.662 167.938 402.008 147.232 403.755C145.112 403.948 145.112 407.829 147.232 407.636C168.428 405.695 189.134 397.35 206.582 382.989C208.374 381.631 206.744 378.137 204.95 379.69H204.952ZM206.744 147.786C210.004 148.95 213.591 148.563 216.69 146.622C219.95 144.681 220.114 140.994 218.972 137.307C216.2 128.186 213.103 119.259 210.168 110.139C209.352 107.809 206.255 108.78 206.907 111.108C209.189 118.289 211.473 125.275 213.755 132.455C214.244 134.202 214.896 135.949 215.385 137.5C215.875 138.86 216.853 140.994 215.875 142.352C215.058 143.516 213.429 143.905 212.288 144.294C210.71 144.656 209.081 144.522 207.56 143.905C205.602 143.322 204.787 147.01 206.744 147.786ZM181.472 158.654C191.907 165.835 204.952 166.999 216.038 161.371C217.993 160.4 217.178 156.519 215.222 157.489C204.95 162.729 192.885 161.954 183.265 155.16C181.308 153.996 179.678 157.489 181.471 158.654H181.472ZM178.863 103.928C180.656 95.3893 188.482 90.9257 195.168 94.8081C197.124 95.9721 198.755 92.4783 196.798 91.3142C188.32 86.2693 177.884 91.5085 175.602 102.764C175.112 105.286 178.374 106.451 178.863 103.928ZM210.983 93.4481C212.776 88.7918 217.668 88.0147 220.44 91.8971C221.907 93.8367 224.19 90.9257 222.722 89.1788C218.482 83.551 210.819 84.7167 208.049 91.5085C207.232 93.8367 210.169 95.7779 210.983 93.4481ZM197.613 110.721C197.613 107.228 195.983 104.511 194.026 104.511C192.069 104.511 190.439 107.228 190.439 110.72C190.439 114.214 192.069 116.93 194.026 116.93C195.983 116.93 197.613 114.214 197.613 110.72V110.721ZM218.157 100.628C216.2 100.628 214.57 103.345 214.57 106.839C214.57 110.333 216.2 113.05 218.157 113.05C220.114 113.05 221.744 110.333 221.744 106.839C221.744 103.345 220.114 100.628 218.157 100.628ZM140.547 615.086C134.024 613.729 127.665 611.984 121.47 609.654C116.416 607.713 114.134 617.416 119.188 619.163C125.383 621.491 131.742 623.238 138.265 624.596C140.547 624.985 142.667 623.821 143.319 621.102C143.97 618.774 142.667 615.476 140.547 615.086ZM181.634 620.523C174.95 621.103 168.265 620.327 161.742 618.387C156.525 616.835 154.406 626.343 159.46 627.896C166.634 630.03 174.134 630.807 181.636 630.224C183.918 630.03 185.711 628.09 185.711 625.373C185.873 622.851 183.918 620.329 181.634 620.521V620.523ZM231.365 619.357C221.255 620.521 210.983 621.104 200.711 620.716C195.331 620.521 195.331 630.418 200.711 630.613C210.983 630.807 221.092 630.418 231.365 629.254C233.647 629.06 235.44 627.119 235.44 624.402C235.44 621.88 233.647 619.163 231.365 619.357ZM262.181 616.446C261.691 613.924 259.245 612.177 257.124 612.952C252.56 614.893 248.157 616.835 243.593 618.58C241.473 619.551 240.006 621.88 240.657 624.596C241.147 627.119 243.593 628.866 245.713 628.09C250.277 626.149 254.68 624.209 259.245 622.462C261.365 621.685 262.668 619.163 262.181 616.446Z" fill="white"/>
<path d="M120.981 339.132C119.678 331.951 118.861 324.577 118.373 317.396C118.209 314.874 114.949 314.874 115.111 317.396C116.579 342.43 123.1 366.3 133.209 388.229C135.981 394.439 139.08 400.455 142.177 406.47C143.319 408.606 146.254 406.664 145.112 404.53C134.351 384.153 125.383 362.808 120.981 339.132ZM868.227 473.81C866.596 460.808 864.966 448 863.336 434.997C859.749 405.887 855.998 376.779 852.411 347.67C852.085 345.148 848.824 346.312 849.15 348.642C852.086 372.898 855.183 396.962 858.117 421.219C859.586 433.252 861.054 445.089 862.519 457.121C863.988 468.765 865.943 480.602 866.27 492.44C866.596 503.114 865.291 513.787 860.889 523.101C856.977 531.447 851.27 538.239 845.074 544.45C841.975 547.553 838.715 550.466 835.455 553.57C832.031 556.675 828.444 560.169 824.203 561.72C816.052 564.825 810.997 556.092 805.128 551.242C801.541 548.331 797.627 547.361 793.388 546.584C789.311 545.808 785.073 544.255 783.604 539.016C780.67 527.759 790.453 520.579 797.954 517.862C799.094 517.474 799.584 515.534 798.606 514.564C797.954 513.787 797.139 513.012 796.486 512.042C802.519 507.965 808.715 502.92 811.649 495.157C813.606 489.918 813.442 484.484 812.627 479.051C811.649 473.035 810.182 467.213 808.715 461.196V461.002C808.715 460.613 808.715 460.421 808.552 460.031C805.943 448.194 803.171 436.55 800.562 424.713C797.954 413.458 795.67 401.814 790.942 391.334C786.54 381.048 780.019 370.957 780.181 358.926C780.181 356.403 776.92 356.403 776.92 358.926C776.757 369.211 781.16 378.331 785.236 386.87C787.356 391.528 789.638 396.186 791.268 401.037C793.062 406.277 794.367 411.905 795.67 417.339C798.442 429.177 801.051 441.014 803.66 452.852C804.313 455.569 804.963 458.285 805.453 461.002C803.008 474.199 800.888 487.395 799.258 500.59C798.932 503.113 802.193 504.084 802.519 501.562C803.823 490.693 805.616 479.826 807.41 469.152C807.41 469.541 807.573 469.735 807.573 470.124C808.877 475.557 810.345 481.185 810.019 487.007C809.367 498.262 800.399 504.473 793.062 509.518C792.083 510.101 791.92 511.846 792.735 512.623C793.388 513.206 793.877 513.981 794.529 514.564C787.845 517.475 781.322 522.909 780.181 532.029C779.855 535.134 780.019 538.433 781.159 541.15C775.128 557.442 766.297 572.052 755.234 584.038C752.301 587.143 749.365 590.054 746.267 592.771C745.288 593.741 744.147 594.711 743.17 595.488C742.843 594.711 742.191 594.129 741.213 594.324C719.691 599.951 697.842 593.352 677.624 584.425C671.798 581.91 666.034 579.192 660.341 576.275C659.037 575.694 658.385 576.858 658.385 578.216H658.059C658.385 578.022 658.547 577.633 658.547 577.052C662.135 551.436 665.722 525.82 666.537 500.009C667.027 487.005 666.7 474.199 665.396 461.389C664.093 448.777 661.646 436.357 658.549 424.132C655.612 412.099 652.515 400.067 651.7 387.647C650.883 375.033 652.842 362.612 656.102 350.581C659.363 338.743 663.44 327.293 667.515 315.844C671.429 304.977 676.157 294.303 682.843 285.57C688.874 277.614 696.538 271.792 705.506 269.658C708.929 268.881 712.516 268.299 716.104 267.717C716.104 273.539 720.506 277.614 725.071 279.166C730.94 281.3 737.137 281.494 743.17 280.525C755.724 278.583 766.974 271.986 778.55 266.552C785.073 263.447 791.758 260.73 798.606 259.372C800.726 258.984 799.747 255.103 797.789 255.491C775.778 259.953 756.376 278.972 733.224 277.031C730.125 276.838 727.028 276.061 724.256 274.703C721.647 273.344 718.712 270.628 719.202 266.941C722.299 265.97 725.233 264.806 727.843 262.672C729.393 261.374 730.767 259.804 731.919 258.014C732.082 257.819 732.245 257.431 732.245 257.237C733.062 257.237 733.876 256.655 733.876 255.297C733.383 246.333 732.567 237.398 731.43 228.517C731.757 228.322 732.082 228.128 732.409 228.128C743.006 223.276 750.996 213.379 757.518 202.901C758.822 200.765 755.888 198.824 754.583 200.958C749.039 209.887 742.518 218.231 734.039 223.082C732.735 223.859 731.43 224.44 730.125 225.023C729.473 224.634 728.658 225.023 728.17 225.798C721.322 227.934 713.821 227.545 707.788 223.47C699.637 217.843 695.396 206.781 692.625 196.69C689.201 185.046 687.407 172.821 686.429 160.594C685.777 152.832 685.45 145.069 685.287 137.307C685.94 138.083 687.244 138.277 687.897 136.919C689.853 133.038 694.418 132.649 696.538 136.53C697.842 138.666 700.614 136.53 699.473 134.591C695.886 128.574 688.712 128.574 685.287 134.591C685.125 129.156 685.125 123.916 685.125 118.483C685.125 115.961 681.863 115.961 681.863 118.483C682.027 144.875 682.027 172.044 689.364 197.465C692.461 208.14 696.701 219.588 704.854 225.993C711.701 231.428 720.342 232.203 728.333 230.068C729.479 238.493 730.295 246.976 730.778 255.491C730.289 255.491 729.8 255.684 729.31 256.267C724.419 263.834 714.962 264.223 707.788 265.583C698.983 267.328 691.321 271.599 684.635 278.583C677.461 286.152 672.244 296.049 668.004 306.141C663.44 317.202 659.526 328.652 655.939 340.101C652.188 351.745 649.255 363.778 648.44 376.198C647.786 388.617 649.743 401.037 652.515 412.875C655.287 425.1 658.711 437.133 660.668 449.552C662.298 459.644 663.113 469.929 663.44 480.213C647.598 483.898 631.482 485.654 615.341 485.454C613.221 485.454 613.221 489.335 615.341 489.335C631.483 489.529 647.624 487.784 663.44 484.096V488.171C663.44 496.515 663.113 504.86 662.623 513.012C655.776 512.234 649.091 511.265 642.244 509.906C635.396 508.548 628.547 507.19 621.7 508.935C608.655 512.234 601.645 527.565 589.416 532.417C584.036 534.553 576.862 533.775 573.275 527.759C572.133 525.625 569.198 527.565 570.338 529.7C572.458 533.581 575.882 535.911 579.634 536.881C579.634 536.881 579.47 536.881 579.47 537.075C570.176 542.897 560.557 534.358 553.383 527.954C551.752 526.402 549.959 529.895 551.752 531.447C560.067 539.015 570.666 547.166 581.101 540.567C582.242 539.792 582.079 538.239 581.264 537.462C582.242 537.656 583.219 537.656 584.036 537.656C590.394 537.462 596.101 533.583 600.993 529.118C606.21 524.267 611.101 518.639 617.134 515.145C623.982 511.265 631.646 512.04 638.819 513.398C646.646 514.757 654.309 516.115 662.298 517.087C660.994 533.581 659.037 549.883 656.754 566.378C656.265 569.677 655.776 572.783 655.45 576.081C655.287 577.439 656.102 578.41 657.081 578.603C656.592 578.992 656.429 579.38 656.429 580.156C658.057 612.032 661.16 643.777 665.722 675.247C667.025 684.173 668.494 693.295 669.962 702.222C670.45 704.744 673.549 703.58 673.222 701.251C667.841 670.162 663.922 638.74 661.483 607.132C660.831 598.205 660.179 589.277 659.852 580.35C680.395 590.247 701.429 600.144 723.929 600.533C729.473 600.533 735.017 600.144 740.398 598.786C739.581 599.757 738.931 600.727 738.114 601.697C733.55 608.684 732.571 617.61 733.876 626.149C735.506 636.823 740.723 646.137 745.778 654.87C746.594 656.229 748.387 656.034 748.876 654.482C758.17 622.462 785.399 605.966 807.247 587.336C812.464 616.835 811.812 647.69 805.453 676.8C803.66 685.144 801.214 693.489 798.606 701.445C797.789 703.775 801.051 704.744 801.866 702.416C811.812 673.5 815.889 641.674 813.606 610.43C812.954 601.697 811.812 593.158 810.345 584.619C817.029 578.603 823.225 572.2 828.606 564.825C828.932 564.438 829.096 563.854 829.096 563.274C832.193 561.331 834.965 558.809 837.737 556.286C851.432 544.061 865.781 529.895 869.205 508.936C870.835 497.679 869.693 485.648 868.227 473.81ZM757.518 629.448C753.098 635.671 749.523 642.677 746.92 650.212C743.17 643.421 739.419 636.435 737.789 628.477C735.996 620.327 736.485 610.818 741.376 604.221C743.822 600.921 746.92 598.399 749.854 595.682C752.769 593.178 755.547 590.456 758.17 587.53C763.55 581.708 768.279 575.305 772.681 568.513C777.049 561.403 780.817 553.798 783.931 545.808C786.703 549.106 790.616 550.077 794.202 550.853C798.442 551.629 801.866 552.794 805.29 555.898C808.226 558.616 810.997 562.108 814.258 564.244C817.194 566.184 820.453 566.961 823.552 566.378C803.823 590.636 775.778 603.249 757.518 629.448Z" fill="white"/>
<path d="M568.056 543.478C558.437 546.972 549.469 539.792 541.806 533.581C540.013 532.223 538.383 535.523 540.176 537.075C548.491 543.867 558.437 551.242 568.873 547.361C570.993 546.584 570.013 542.703 568.056 543.478ZM607.352 491.276C609.307 492.248 610.939 488.948 608.982 487.782C598.711 482.349 588.927 489.918 580.937 496.904C576.697 500.59 572.46 504.471 567.404 506.414C564.959 507.384 562.187 507.384 559.905 508.937C558.111 510.295 556.806 512.623 556.968 515.34C557.133 517.862 560.557 517.862 560.23 515.34C560.067 512.429 562.839 511.653 564.796 511.07C566.916 510.488 569.036 509.906 570.991 508.935C575.232 506.801 578.817 503.501 582.404 500.396C589.578 494.576 598.546 486.618 607.352 491.276ZM574.578 521.937C575.882 521.356 577.024 520.386 578.166 519.415C579.307 518.443 580.937 517.087 580.122 514.951C579.306 512.817 577.35 513.4 575.882 513.787C575.068 513.981 574.253 514.37 573.437 514.564C573.112 514.564 572.622 514.757 572.296 514.757H571.97C569.85 514.176 569.035 518.057 571.155 518.639C571.643 518.834 572.296 518.834 572.948 518.639C572.132 520.19 572.948 522.909 574.578 521.937ZM677.299 653.901C671.429 647.302 671.102 637.018 670.777 628.09C670.45 615.863 669.961 603.832 669.635 591.606C669.472 589.083 666.212 589.083 666.375 591.606C666.863 604.414 667.19 617.222 667.678 630.03C668.005 639.54 668.982 649.826 675.016 656.617C676.483 658.363 678.766 655.646 677.298 653.901H677.299ZM679.745 658.946C679.418 656.423 676.158 657.587 676.483 659.917C678.44 674.082 680.56 688.443 682.517 702.611C682.842 705.133 686.104 703.967 685.777 701.639C683.82 687.473 681.863 673.306 679.745 658.946ZM699.31 187.957C702.571 189.51 706.158 188.928 709.256 187.181C711.213 186.016 709.419 182.716 707.626 183.688C706.365 184.459 704.967 184.858 703.549 184.852C702.571 184.852 700.614 184.657 699.799 183.688C698.984 182.716 699.473 180.777 699.635 179.613C699.962 177.866 700.288 175.924 700.452 174.179L703.875 153.219C704.201 150.697 701.104 149.725 700.614 152.249C699.147 161.371 697.353 170.685 696.048 180.001C695.56 183.495 696.375 186.599 699.31 187.957ZM705.669 199.407C703.712 198.243 702.082 201.735 704.039 202.901C707.951 205.229 712.353 206.004 716.593 204.646C720.996 203.095 724.419 199.407 727.028 195.137C728.332 193.003 725.398 191.062 724.093 193.196C719.527 200.377 712.518 203.482 705.669 199.407ZM710.886 134.783C716.755 129.544 724.581 132.067 727.518 140.024C728.332 142.352 731.267 140.411 730.452 138.083C726.865 128.38 716.267 125.081 709.256 131.485C707.463 132.844 709.093 136.336 710.886 134.783ZM716.755 155.938C718.549 155.549 719.691 152.638 719.202 149.338C718.712 146.04 716.919 143.711 714.962 144.099C713.168 144.488 712.028 147.399 712.517 150.697C713.006 153.996 714.8 156.325 716.757 155.938H716.755ZM696.212 150.31C695.723 147.01 693.929 144.681 691.973 145.069C690.179 145.458 689.037 148.369 689.527 151.668C690.016 154.966 691.809 157.296 693.766 156.907C695.56 156.519 696.701 153.608 696.212 150.308V150.31ZM253.214 346.893C259.898 329.816 266.582 312.933 273.268 295.855C273.593 295.08 273.431 294.108 272.941 293.721C273.104 293.916 273.431 293.916 273.757 293.916C295.93 295.467 318.106 298.378 340.117 302.454C346.149 303.618 352.183 304.977 358.215 306.335C345.008 328.439 331.746 350.497 318.431 372.51C314.519 378.914 310.767 385.318 306.856 391.722C306.691 391.528 306.366 391.334 306.203 391.14C299.517 385.318 291.04 388.423 284.027 391.917C282.072 392.887 282.887 396.767 284.844 395.798C290.224 393.275 296.583 390.364 302.289 393.275C304.573 394.439 306.529 396.573 307.181 399.484C307.507 401.231 307.507 402.978 306.855 404.725C306.04 404.725 305.061 405.306 304.898 406.664C304.898 407.053 304.898 407.442 304.736 407.83C304.573 408.217 304.573 408.606 304.573 408.994C302.616 421.027 293.812 429.952 283.376 430.145C281.256 430.145 281.256 434.222 283.376 434.028C295.605 433.833 305.713 423.355 307.833 409.575C311.257 405.502 311.257 399.486 308.812 394.828C308.975 394.633 309.138 394.633 309.138 394.439C322.833 371.54 336.693 348.64 350.389 325.741C354.301 319.143 358.378 312.544 362.291 305.947C363.432 304.2 361.476 302.453 360.009 303.23C359.845 303.036 359.682 303.036 359.357 302.841C337.192 297.797 314.825 294.106 292.343 291.78C285.986 291.197 279.627 290.616 273.268 290.229C271.637 290.033 271.311 292.363 272.126 293.527C271.474 292.944 270.332 292.944 270.006 294.108C263.322 311.186 256.636 328.071 249.95 345.148C249.463 347.282 252.397 349.222 253.212 346.893H253.214Z" fill="white"/>
<path d="M282.072 405.889C287.289 401.425 294.137 400.067 300.334 402.589C302.289 403.366 303.268 399.484 301.149 398.708C294.137 395.992 286.311 397.35 280.442 402.395C278.648 403.948 280.442 407.247 282.072 405.889ZM278.158 414.816C282.675 411.731 287.664 409.751 292.833 408.994C294.953 408.8 294.953 404.725 292.833 405.112C287.126 405.889 281.582 408.023 276.528 411.322C274.571 412.681 276.202 415.98 278.158 414.816ZM274.246 422.966C278.974 421.802 283.866 420.638 288.594 419.472C290.714 418.891 289.735 415.203 287.778 415.592C283.05 416.756 278.158 417.92 273.431 419.086C271.311 419.667 272.126 423.355 274.246 422.966ZM801.541 259.372C822.084 270.239 838.063 291.974 844.748 317.396C846.705 324.577 847.846 332.146 848.171 339.713C848.335 342.235 851.595 342.235 851.433 339.713C850.292 311.963 838.389 285.377 819.965 268.105C814.748 263.253 809.204 259.178 803.171 256.073C801.378 254.908 799.584 258.208 801.541 259.372ZM155.69 27.7751C174.948 10.7619 199.102 6.65544 222.441 4.11262C224.724 3.91834 224.072 -0.18808 221.787 0.00776289C197.796 2.54901 173.316 7.2414 153.406 24.6463C151.611 26.2099 153.896 29.3387 155.69 27.7751Z" fill="white"/>
</svg>
